<?xml version="1.0" encoding="UTF-8" standalone="no"?>
<!DOCTYPE svg PUBLIC "-//W3C//DTD SVG 1.1//EN"
 "http://www.w3.org/Graphics/SVG/1.1/DTD/svg11.dtd">
<!-- Generated by graphviz version 2.38.0 (20140413.2041)
 -->
<!-- Title: Tree Pages: 1 -->
<svg width="669pt" height="373pt"
 viewBox="0.00 0.00 669.00 373.00" xmlns="http://www.w3.org/2000/svg" xmlns:xlink="http://www.w3.org/1999/xlink">
<g id="graph0" class="graph" transform="scale(1 1) rotate(0) translate(4 369)">
<title>Tree</title>
<polygon fill="white" stroke="none" points="-4,4 -4,-369 665,-369 665,4 -4,4"/>
<!-- 0 -->
<g id="node1" class="node"><title>0</title>
<polygon fill="none" stroke="black" points="328,-365 154,-365 154,-297 328,-297 328,-365"/>
<text text-anchor="middle" x="241" y="-349.8" font-family="Times,serif" font-size="14.00">Petal Width &lt;= &#45;0.547</text>
<text text-anchor="middle" x="241" y="-334.8" font-family="Times,serif" font-size="14.00">gini = 0.666</text>
<text text-anchor="middle" x="241" y="-319.8" font-family="Times,serif" font-size="14.00">samples = 90</text>
<text text-anchor="middle" x="241" y="-304.8" font-family="Times,serif" font-size="14.00">value = [29, 32, 29]</text>
</g>
<!-- 1 -->
<g id="node2" class="node"><title>1</title>
<polygon fill="none" stroke="black" points="228,-253.5 76,-253.5 76,-200.5 228,-200.5 228,-253.5"/>
<text text-anchor="middle" x="152" y="-238.3" font-family="Times,serif" font-size="14.00">gini = 0.0</text>
<text text-anchor="middle" x="152" y="-223.3" font-family="Times,serif" font-size="14.00">samples = 29</text>
<text text-anchor="middle" x="152" y="-208.3" font-family="Times,serif" font-size="14.00">value = [29, 0, 0]</text>
</g>
<!-- 0&#45;&gt;1 -->
<g id="edge1" class="edge"><title>0&#45;&gt;1</title>
<path fill="none" stroke="black" d="M212.104,-296.884C202.124,-285.446 190.945,-272.634 180.96,-261.19"/>
<polygon fill="black" stroke="black" points="183.479,-258.754 174.267,-253.52 178.205,-263.356 183.479,-258.754"/>
<text text-anchor="middle" x="172.57" y="-274.762" font-family="Times,serif" font-size="14.00">True</text>
</g>
<!-- 2 -->
<g id="node3" class="node"><title>2</title>
<polygon fill="none" stroke="black" points="413.5,-261 246.5,-261 246.5,-193 413.5,-193 413.5,-261"/>
<text text-anchor="middle" x="330" y="-245.8" font-family="Times,serif" font-size="14.00">Petal Width &lt;= 0.717</text>
<text text-anchor="middle" x="330" y="-230.8" font-family="Times,serif" font-size="14.00">gini = 0.499</text>
<text text-anchor="middle" x="330" y="-215.8" font-family="Times,serif" font-size="14.00">samples = 61</text>
<text text-anchor="middle" x="330" y="-200.8" font-family="Times,serif" font-size="14.00">value = [0, 32, 29]</text>
</g>
<!-- 0&#45;&gt;2 -->
<g id="edge2" class="edge"><title>0&#45;&gt;2</title>
<path fill="none" stroke="black" d="M269.896,-296.884C277.668,-287.976 286.167,-278.235 294.263,-268.957"/>
<polygon fill="black" stroke="black" points="297.007,-271.135 300.945,-261.299 291.733,-266.533 297.007,-271.135"/>
<text text-anchor="middle" x="302.642" y="-282.542" font-family="Times,serif" font-size="14.00">False</text>
</g>
<!-- 3 -->
<g id="node4" class="node"><title>3</title>
<polygon fill="none" stroke="black" points="321,-157 147,-157 147,-89 321,-89 321,-157"/>
<text text-anchor="middle" x="234" y="-141.8" font-family="Times,serif" font-size="14.00">Petal Length &lt;= 0.979</text>
<text text-anchor="middle" x="234" y="-126.8" font-family="Times,serif" font-size="14.00">gini = 0.114</text>
<text text-anchor="middle" x="234" y="-111.8" font-family="Times,serif" font-size="14.00">samples = 33</text>
<text text-anchor="middle" x="234" y="-96.8" font-family="Times,serif" font-size="14.00">value = [0, 31, 2]</text>
</g>
<!-- 2&#45;&gt;3 -->
<g id="edge3" class="edge"><title>2&#45;&gt;3</title>
<path fill="none" stroke="black" d="M298.832,-192.884C290.364,-183.887 281.097,-174.041 272.285,-164.678"/>
<polygon fill="black" stroke="black" points="274.743,-162.183 265.341,-157.299 269.646,-166.98 274.743,-162.183"/>
</g>
<!-- 6 -->
<g id="node7" class="node"><title>6</title>
<polygon fill="none" stroke="black" points="513,-157 339,-157 339,-89 513,-89 513,-157"/>
<text text-anchor="middle" x="426" y="-141.8" font-family="Times,serif" font-size="14.00">Petal Length &lt;= 0.634</text>
<text text-anchor="middle" x="426" y="-126.8" font-family="Times,serif" font-size="14.00">gini = 0.069</text>
<text text-anchor="middle" x="426" y="-111.8" font-family="Times,serif" font-size="14.00">samples = 28</text>
<text text-anchor="middle" x="426" y="-96.8" font-family="Times,serif" font-size="14.00">value = [0, 1, 27]</text>
</g>
<!-- 2&#45;&gt;6 -->
<g id="edge6" class="edge"><title>2&#45;&gt;6</title>
<path fill="none" stroke="black" d="M361.168,-192.884C369.636,-183.887 378.903,-174.041 387.715,-164.678"/>
<polygon fill="black" stroke="black" points="390.354,-166.98 394.659,-157.299 385.257,-162.183 390.354,-166.98"/>
</g>
<!-- 4 -->
<g id="node5" class="node"><title>4</title>
<polygon fill="none" stroke="black" points="152,-53 0,-53 0,-0 152,-0 152,-53"/>
<text text-anchor="middle" x="76" y="-37.8" font-family="Times,serif" font-size="14.00">gini = 0.061</text>
<text text-anchor="middle" x="76" y="-22.8" font-family="Times,serif" font-size="14.00">samples = 32</text>
<text text-anchor="middle" x="76" y="-7.8" font-family="Times,serif" font-size="14.00">value = [0, 31, 1]</text>
</g>
<!-- 3&#45;&gt;4 -->
<g id="edge4" class="edge"><title>3&#45;&gt;4</title>
<path fill="none" stroke="black" d="M178.739,-88.9485C162.146,-79.0237 144.011,-68.1776 127.66,-58.3977"/>
<polygon fill="black" stroke="black" points="129.159,-55.216 118.78,-53.0867 125.565,-61.2234 129.159,-55.216"/>
</g>
<!-- 5 -->
<g id="node6" class="node"><title>5</title>
<polygon fill="none" stroke="black" points="314,-53 170,-53 170,-0 314,-0 314,-53"/>
<text text-anchor="middle" x="242" y="-37.8" font-family="Times,serif" font-size="14.00">gini = 0.0</text>
<text text-anchor="middle" x="242" y="-22.8" font-family="Times,serif" font-size="14.00">samples = 1</text>
<text text-anchor="middle" x="242" y="-7.8" font-family="Times,serif" font-size="14.00">value = [0, 0, 1]</text>
</g>
<!-- 3&#45;&gt;5 -->
<g id="edge5" class="edge"><title>3&#45;&gt;5</title>
<path fill="none" stroke="black" d="M236.798,-88.9485C237.503,-80.6238 238.262,-71.6509 238.978,-63.2027"/>
<polygon fill="black" stroke="black" points="242.465,-63.4963 239.821,-53.2367 235.49,-62.9058 242.465,-63.4963"/>
</g>
<!-- 7 -->
<g id="node8" class="node"><title>7</title>
<polygon fill="none" stroke="black" points="491,-53 347,-53 347,-0 491,-0 491,-53"/>
<text text-anchor="middle" x="419" y="-37.8" font-family="Times,serif" font-size="14.00">gini = 0.5</text>
<text text-anchor="middle" x="419" y="-22.8" font-family="Times,serif" font-size="14.00">samples = 2</text>
<text text-anchor="middle" x="419" y="-7.8" font-family="Times,serif" font-size="14.00">value = [0, 1, 1]</text>
</g>
<!-- 6&#45;&gt;7 -->
<g id="edge7" class="edge"><title>6&#45;&gt;7</title>
<path fill="none" stroke="black" d="M423.552,-88.9485C422.942,-80.7153 422.285,-71.848 421.665,-63.4814"/>
<polygon fill="black" stroke="black" points="425.136,-62.9508 420.906,-53.2367 418.155,-63.468 425.136,-62.9508"/>
</g>
<!-- 8 -->
<g id="node9" class="node"><title>8</title>
<polygon fill="none" stroke="black" points="661,-53 509,-53 509,-0 661,-0 661,-53"/>
<text text-anchor="middle" x="585" y="-37.8" font-family="Times,serif" font-size="14.00">gini = 0.0</text>
<text text-anchor="middle" x="585" y="-22.8" font-family="Times,serif" font-size="14.00">samples = 26</text>
<text text-anchor="middle" x="585" y="-7.8" font-family="Times,serif" font-size="14.00">value = [0, 0, 26]</text>
</g>
<!-- 6&#45;&gt;8 -->
<g id="edge8" class="edge"><title>6&#45;&gt;8</title>
<path fill="none" stroke="black" d="M481.61,-88.9485C498.309,-79.0237 516.558,-68.1776 533.013,-58.3977"/>
<polygon fill="black" stroke="black" points="535.141,-61.2046 541.949,-53.0867 531.565,-55.1872 535.141,-61.2046"/>
</g>
</g>
</svg>
