<?xml version="1.0" encoding="UTF-8" standalone="no"?>
<!DOCTYPE svg PUBLIC "-//W3C//DTD SVG 1.1//EN"
 "http://www.w3.org/Graphics/SVG/1.1/DTD/svg11.dtd">
<!-- Generated by graphviz version 2.38.0 (20140413.2041)
 -->
<!-- Title: Tree Pages: 1 -->
<svg width="514pt" height="373pt"
 viewBox="0.00 0.00 514.00 373.00" xmlns="http://www.w3.org/2000/svg" xmlns:xlink="http://www.w3.org/1999/xlink">
<g id="graph0" class="graph" transform="scale(1 1) rotate(0) translate(4 369)">
<title>Tree</title>
<polygon fill="white" stroke="none" points="-4,4 -4,-369 510,-369 510,4 -4,4"/>
<!-- 0 -->
<g id="node1" class="node"><title>0</title>
<polygon fill="none" stroke="black" points="252,-365 112,-365 112,-297 252,-297 252,-365"/>
<text text-anchor="middle" x="182" y="-349.8" font-family="Times,serif" font-size="14.00">Petal Width &lt;= &#45;0.547</text>
<text text-anchor="middle" x="182" y="-334.8" font-family="Times,serif" font-size="14.00">gini = 0.666</text>
<text text-anchor="middle" x="182" y="-319.8" font-family="Times,serif" font-size="14.00">samples = 90</text>
<text text-anchor="middle" x="182" y="-304.8" font-family="Times,serif" font-size="14.00">value = [29, 32, 29]</text>
</g>
<!-- 1 -->
<g id="node2" class="node"><title>1</title>
<polygon fill="none" stroke="black" points="167,-253.5 55,-253.5 55,-200.5 167,-200.5 167,-253.5"/>
<text text-anchor="middle" x="111" y="-238.3" font-family="Times,serif" font-size="14.00">gini = 0.0</text>
<text text-anchor="middle" x="111" y="-223.3" font-family="Times,serif" font-size="14.00">samples = 29</text>
<text text-anchor="middle" x="111" y="-208.3" font-family="Times,serif" font-size="14.00">value = [29, 0, 0]</text>
</g>
<!-- 0&#45;&gt;1 -->
<g id="edge1" class="edge"><title>0&#45;&gt;1</title>
<path fill="none" stroke="black" d="M158.948,-296.884C151.14,-285.666 142.411,-273.126 134.564,-261.852"/>
<polygon fill="black" stroke="black" points="137.35,-259.728 128.764,-253.52 131.604,-263.727 137.35,-259.728"/>
<text text-anchor="middle" x="124.354" y="-274.428" font-family="Times,serif" font-size="14.00">True</text>
</g>
<!-- 2 -->
<g id="node3" class="node"><title>2</title>
<polygon fill="none" stroke="black" points="321,-261 185,-261 185,-193 321,-193 321,-261"/>
<text text-anchor="middle" x="253" y="-245.8" font-family="Times,serif" font-size="14.00">Petal Width &lt;= 0.717</text>
<text text-anchor="middle" x="253" y="-230.8" font-family="Times,serif" font-size="14.00">gini = 0.499</text>
<text text-anchor="middle" x="253" y="-215.8" font-family="Times,serif" font-size="14.00">samples = 61</text>
<text text-anchor="middle" x="253" y="-200.8" font-family="Times,serif" font-size="14.00">value = [0, 32, 29]</text>
</g>
<!-- 0&#45;&gt;2 -->
<g id="edge2" class="edge"><title>0&#45;&gt;2</title>
<path fill="none" stroke="black" d="M205.052,-296.884C211.128,-288.154 217.761,-278.625 224.103,-269.514"/>
<polygon fill="black" stroke="black" points="226.981,-271.506 229.821,-261.299 221.235,-267.507 226.981,-271.506"/>
<text text-anchor="middle" x="234.231" y="-282.207" font-family="Times,serif" font-size="14.00">False</text>
</g>
<!-- 3 -->
<g id="node4" class="node"><title>3</title>
<polygon fill="none" stroke="black" points="244,-157 104,-157 104,-89 244,-89 244,-157"/>
<text text-anchor="middle" x="174" y="-141.8" font-family="Times,serif" font-size="14.00">Petal Length &lt;= 0.979</text>
<text text-anchor="middle" x="174" y="-126.8" font-family="Times,serif" font-size="14.00">gini = 0.114</text>
<text text-anchor="middle" x="174" y="-111.8" font-family="Times,serif" font-size="14.00">samples = 33</text>
<text text-anchor="middle" x="174" y="-96.8" font-family="Times,serif" font-size="14.00">value = [0, 31, 2]</text>
</g>
<!-- 2&#45;&gt;3 -->
<g id="edge3" class="edge"><title>2&#45;&gt;3</title>
<path fill="none" stroke="black" d="M227.351,-192.884C220.521,-184.065 213.059,-174.43 205.937,-165.235"/>
<polygon fill="black" stroke="black" points="208.681,-163.062 199.791,-157.299 203.147,-167.349 208.681,-163.062"/>
</g>
<!-- 6 -->
<g id="node7" class="node"><title>6</title>
<polygon fill="none" stroke="black" points="402,-157 262,-157 262,-89 402,-89 402,-157"/>
<text text-anchor="middle" x="332" y="-141.8" font-family="Times,serif" font-size="14.00">Petal Length &lt;= 0.634</text>
<text text-anchor="middle" x="332" y="-126.8" font-family="Times,serif" font-size="14.00">gini = 0.069</text>
<text text-anchor="middle" x="332" y="-111.8" font-family="Times,serif" font-size="14.00">samples = 28</text>
<text text-anchor="middle" x="332" y="-96.8" font-family="Times,serif" font-size="14.00">value = [0, 1, 27]</text>
</g>
<!-- 2&#45;&gt;6 -->
<g id="edge6" class="edge"><title>2&#45;&gt;6</title>
<path fill="none" stroke="black" d="M278.649,-192.884C285.479,-184.065 292.941,-174.43 300.063,-165.235"/>
<polygon fill="black" stroke="black" points="302.853,-167.349 306.209,-157.299 297.319,-163.062 302.853,-167.349"/>
</g>
<!-- 4 -->
<g id="node5" class="node"><title>4</title>
<polygon fill="none" stroke="black" points="112,-53 0,-53 0,-0 112,-0 112,-53"/>
<text text-anchor="middle" x="56" y="-37.8" font-family="Times,serif" font-size="14.00">gini = 0.061</text>
<text text-anchor="middle" x="56" y="-22.8" font-family="Times,serif" font-size="14.00">samples = 32</text>
<text text-anchor="middle" x="56" y="-7.8" font-family="Times,serif" font-size="14.00">value = [0, 31, 1]</text>
</g>
<!-- 3&#45;&gt;4 -->
<g id="edge4" class="edge"><title>3&#45;&gt;4</title>
<path fill="none" stroke="black" d="M132.729,-88.9485C120.85,-79.4346 107.912,-69.074 96.1044,-59.6175"/>
<polygon fill="black" stroke="black" points="98.1302,-56.7558 88.1368,-53.2367 93.7545,-62.2196 98.1302,-56.7558"/>
</g>
<!-- 5 -->
<g id="node6" class="node"><title>5</title>
<polygon fill="none" stroke="black" points="235.5,-53 130.5,-53 130.5,-0 235.5,-0 235.5,-53"/>
<text text-anchor="middle" x="183" y="-37.8" font-family="Times,serif" font-size="14.00">gini = 0.0</text>
<text text-anchor="middle" x="183" y="-22.8" font-family="Times,serif" font-size="14.00">samples = 1</text>
<text text-anchor="middle" x="183" y="-7.8" font-family="Times,serif" font-size="14.00">value = [0, 0, 1]</text>
</g>
<!-- 3&#45;&gt;5 -->
<g id="edge5" class="edge"><title>3&#45;&gt;5</title>
<path fill="none" stroke="black" d="M177.148,-88.9485C177.941,-80.6238 178.795,-71.6509 179.6,-63.2027"/>
<polygon fill="black" stroke="black" points="183.085,-63.5235 180.549,-53.2367 176.116,-62.8598 183.085,-63.5235"/>
</g>
<!-- 7 -->
<g id="node8" class="node"><title>7</title>
<polygon fill="none" stroke="black" points="375.5,-53 270.5,-53 270.5,-0 375.5,-0 375.5,-53"/>
<text text-anchor="middle" x="323" y="-37.8" font-family="Times,serif" font-size="14.00">gini = 0.5</text>
<text text-anchor="middle" x="323" y="-22.8" font-family="Times,serif" font-size="14.00">samples = 2</text>
<text text-anchor="middle" x="323" y="-7.8" font-family="Times,serif" font-size="14.00">value = [0, 1, 1]</text>
</g>
<!-- 6&#45;&gt;7 -->
<g id="edge7" class="edge"><title>6&#45;&gt;7</title>
<path fill="none" stroke="black" d="M328.852,-88.9485C328.059,-80.6238 327.205,-71.6509 326.4,-63.2027"/>
<polygon fill="black" stroke="black" points="329.884,-62.8598 325.451,-53.2367 322.915,-63.5235 329.884,-62.8598"/>
</g>
<!-- 8 -->
<g id="node9" class="node"><title>8</title>
<polygon fill="none" stroke="black" points="506,-53 394,-53 394,-0 506,-0 506,-53"/>
<text text-anchor="middle" x="450" y="-37.8" font-family="Times,serif" font-size="14.00">gini = 0.0</text>
<text text-anchor="middle" x="450" y="-22.8" font-family="Times,serif" font-size="14.00">samples = 26</text>
<text text-anchor="middle" x="450" y="-7.8" font-family="Times,serif" font-size="14.00">value = [0, 0, 26]</text>
</g>
<!-- 6&#45;&gt;8 -->
<g id="edge8" class="edge"><title>6&#45;&gt;8</title>
<path fill="none" stroke="black" d="M373.271,-88.9485C385.15,-79.4346 398.088,-69.074 409.896,-59.6175"/>
<polygon fill="black" stroke="black" points="412.246,-62.2196 417.863,-53.2367 407.87,-56.7558 412.246,-62.2196"/>
</g>
</g>
</svg>
